<svg width="280" height="135" viewBox="0 0 280 135" fill="none" xmlns="http://www.w3.org/2000/svg">
<path d="M195.359 0.986211C196.871 0.978911 198.56 0.776102 200.068 0.609375C204.58 11.5419 208.194 23.1282 212.212 34.2614C212.864 36.0694 213.809 37.9671 214.425 39.7521C217.175 47.7335 219.985 55.6915 222.786 63.6539C224.259 67.8448 226.198 72.1072 227.313 76.3383C229.904 71.4419 231.416 65.72 233.656 60.6389C237.948 50.9393 241.413 40.8747 245.343 31.0245C246.979 27.5944 248.156 24.0334 249.582 20.5351C252.045 14.4907 254.247 8.23222 256.675 2.19302L279.779 2.19642L279.767 5.11314L279.508 5.11204C274.882 5.10252 270.152 5.27887 269.421 10.9245C269.019 14.0264 269.032 16.9397 268.982 20.0508L268.79 33.3073C268.76 35.3269 268.573 37.3461 268.515 39.3606C268.242 46.755 268.109 54.1538 268.116 61.5533C268.142 62.0257 268.133 62.9786 268.184 63.3703L268.116 66.6377L268.184 70.0366L268 77.1377C267.903 80.2385 267.331 86.5097 269.214 89.1062C270.942 91.4894 275.427 91.7572 278.175 92.1281C278.104 93.046 278.085 93.8329 278.074 94.7545C270.216 94.3643 262.492 93.9043 254.601 93.9646C251.104 93.9913 247.943 93.8411 244.447 94.2271C244.396 93.2768 244.46 92.1918 244.493 91.23C245.024 91.234 245.555 91.2305 246.086 91.2194C251.646 91.0914 254.333 90.3109 254.995 84.3888C255.548 79.4579 255.406 74.9527 255.488 70.0366L255.829 46.0466C255.858 43.4605 256.025 40.8689 256.09 38.2837L256.36 20.8479C256.389 17.725 256.493 14.496 256.355 11.3925L232.819 71.5149L227.651 84.8977C226.582 87.6559 225.701 90.5001 224.355 93.1461C224.184 93.4657 223.974 93.8236 223.721 94.0808C221.909 95.9176 220.978 93.1075 220.555 91.9046C218.62 86.4094 216.507 80.5288 214.548 75.0973L204.01 46.4639L197.615 29.1936C195.519 23.372 194.664 22.2079 194.833 15.7515C194.961 10.8457 195.163 5.89451 195.359 0.986211Z" fill="#856457"/>
<path d="M117.668 1.65918L149.56 83.8788C150.859 87.1889 152.342 89.3926 154.003 90.49C155.661 91.5784 157.184 92.1652 158.572 92.2458V94.8617C156.825 94.6825 154.689 94.575 152.158 94.5392C149.636 94.4944 147.115 94.4675 144.597 94.4675C141.193 94.4675 138.008 94.4944 135.048 94.5392C132.082 94.575 129.691 94.6825 127.863 94.8617V92.2458C132.306 92.0667 135.137 91.3052 136.356 89.9525C137.574 88.6043 137.31 85.7063 135.567 81.2629L111.254 16.2971L113.351 14.595L90.5964 73.6842C89.2079 77.1734 88.3837 80.1163 88.1239 82.5171C87.8596 84.909 88.097 86.7992 88.8406 88.1967C89.5796 89.5942 90.8383 90.5975 92.621 91.2067C94.4126 91.8158 96.6567 92.1652 99.3576 92.2458V94.8617C96.921 94.6825 94.3679 94.575 91.7072 94.5392C89.0556 94.4944 86.592 94.4675 84.3256 94.4675C82.1487 94.4675 80.2988 94.4944 78.7714 94.5392C77.2395 94.575 75.8241 94.6825 74.5251 94.8617V92.2458C76.2675 91.8158 78.0547 90.7946 79.8822 89.1821C81.7097 87.5696 83.3625 84.8015 84.8451 80.8688L115.572 1.65918C115.917 1.65918 116.262 1.65918 116.611 1.65918C116.956 1.65918 117.31 1.65918 117.668 1.65918ZM133.614 57.2188V59.8346H94.6635L95.9535 57.2188H133.614Z" fill="#856457"/>
<path d="M162.911 0.0400247C168.137 -0.11576 172.335 0.0633008 176.949 2.80161C179.402 4.25738 181.715 5.52949 184.428 6.43916L184.514 6.37937C186.847 4.72577 186.742 3.47714 187.209 0.745684C188.205 0.685158 189.394 0.722783 190.406 0.730653C189.823 6.5262 189.796 12.6019 189.703 18.4285C189.654 21.4943 189.798 24.6097 189.621 27.669C188.673 27.6243 187.592 27.65 186.633 27.6521C185.587 19.2042 183.96 11.9196 176.833 6.07141C172.862 2.92435 167.449 2.1866 162.597 2.80407C153.255 3.9929 148.582 11.391 149.811 20.4505C150.838 28.0233 156.931 32.3103 162.963 36.0553C165.918 37.8914 168.8 39.6442 171.799 41.4018C175.539 43.9181 179.523 46.6713 183.174 49.2956C187.315 52.2705 191.678 57.4502 193.605 62.1829C194.209 63.6714 194.473 65.6759 194.687 67.2924C197.045 87.5798 181.813 96.6294 163.475 95.7098C163.325 94.662 163.334 93.9374 163.335 92.8722C164.497 92.8613 165.661 92.8349 166.824 92.7929C177.304 92.3942 183.429 85.2402 183.045 74.9172C182.606 63.0796 171.243 57.5427 162.651 51.7504C160.864 50.5461 158.927 49.5265 157.127 48.3677C153.53 46.0367 150.134 43.4071 146.978 40.5066C141.9 35.8086 139.772 30.3415 139.473 23.5425C138.822 8.72855 148.69 0.511521 162.911 0.0400247Z" fill="#856457"/>
<path d="M194.068 89.2744C196.15 90.1769 198.342 90.3343 200.573 90.518C200.598 91.4783 200.634 92.4094 200.574 93.3702C197.58 93.0752 194.889 93.0175 191.902 92.8994C191.346 92.88 191.036 92.914 190.572 92.6212L190.612 92.4258C190.811 92.3421 191.082 92.3335 191.303 92.3118C192.325 91.4828 193.127 90.2262 194.068 89.2744Z" fill="#856457"/>
<path d="M52.6422 76.1497C53.4724 72.8011 54.5314 70.5649 55.5382 67.434C57.3072 61.9326 59.565 56.904 61.5845 51.5949C64.3662 44.2825 67.0119 36.7581 69.6715 29.3951C70.4218 27.3181 71.3556 25.3239 72.1294 23.28C73.8427 18.7862 75.4909 14.2679 77.0737 9.72643C77.6927 7.979 79.2276 3.35023 80.0176 1.80101C81.3821 1.46763 84.9307 1.59898 86.5003 1.60984C89.8492 1.63057 93.1982 1.63301 96.5472 1.61714C98.4872 1.5893 101.372 1.26519 103.112 1.40748C103.191 2.27704 103.293 3.21562 103.306 4.08171C100.045 4.98694 96.0639 4.06225 94.0789 7.71013C92.1879 11.1851 92.6896 15.9015 92.6958 19.767L92.7266 33.6636C92.731 35.293 92.4964 42.5112 92.8807 43.5998C92.3674 44.6562 91.384 48.1773 90.7888 49.7097L85.3522 63.9501C83.4679 68.8716 82.3719 71.9397 79.8887 76.7715C80.1664 74.9917 80.0524 72.0728 80.0358 70.178L79.9774 60.2879L79.9822 26.9107C79.9931 23.8901 79.9863 20.8694 79.9617 17.8489C79.9429 16.2595 79.8227 14.2829 79.893 12.7348L79.7977 12.6424C79.1943 13.0205 73.1877 31.4581 72.1465 33.3514C71.8285 33.9296 70.1192 38.1801 69.7929 39.0453L57.0018 73.7095L52.4833 86.2658C51.5602 88.816 50.7888 91.7166 49.3531 94.0375C48.8559 94.8413 47.8616 94.7823 46.9933 94.8053C45.7322 93.1192 45.2826 91.443 44.5667 89.4796C42.9108 84.9386 41.2046 80.381 39.434 75.8828L20.7806 28.0832L17.3422 18.9408C16.8075 17.5569 16.1252 16.2277 15.5553 14.8556C15.0586 13.6595 14.7628 12.3916 14.3457 11.1862C13.7603 13.1579 13.9593 20.0498 13.9589 22.5707L13.961 38.3371L13.9585 63.4561C13.9593 69.4998 13.8098 75.5244 14.2994 81.551C14.6387 85.7278 15.5586 89.037 20.0171 90.2266C21.8804 90.7236 23.9936 91.0389 25.9238 91.0162C25.9116 91.9987 25.877 93.0605 25.8899 94.0357C22.5877 93.5743 18.0995 93.6801 14.7541 93.6519C9.82388 93.6103 4.92799 93.6917 0 93.862V91.1397C1.92829 91.0592 5.72512 90.3385 7.38852 89.3121C8.72058 88.5775 10.0161 86.1216 10.2585 84.5825C11.0239 79.7218 10.9606 74.2095 10.9576 69.3428L10.9582 51.7715L10.9573 28.9414C10.9557 22.4336 11.2271 15.5857 10.0963 9.15482C9.21736 4.15616 3.74227 4.8374 0 4.03039V1.50535C1.97946 1.37028 3.85201 1.6075 5.81062 1.61369C10.3089 1.6279 14.8214 1.65894 19.3185 1.56369C20.7696 1.53295 22.2782 1.30953 23.721 1.38209C24.7936 3.81245 25.5673 6.01435 26.531 8.45835C27.3085 10.4301 28.201 12.3612 28.9857 14.3695C31.66 21.3353 34.2526 28.3322 36.763 35.3588C37.6226 37.7072 38.6577 39.9158 39.5419 42.2291C43.1683 51.7179 46.278 61.4782 50.4094 70.7581C51.198 72.5297 51.646 74.4526 52.6422 76.1497Z" fill="#856457"/>
<path d="M161.975 114.913C162.558 114.913 163.067 114.996 163.5 115.163C163.933 115.329 164.292 115.563 164.575 115.863C164.892 116.196 165.108 116.629 165.225 117.163C165.342 117.696 165.4 118.354 165.4 119.138V125.813C165.4 126.513 165.542 126.988 165.825 127.238C166.125 127.488 166.617 127.613 167.3 127.613V128.138C167.017 128.121 166.583 128.104 166 128.088C165.417 128.054 164.85 128.038 164.3 128.038C163.75 128.038 163.208 128.054 162.675 128.088C162.158 128.104 161.767 128.121 161.5 128.138V127.613C162.1 127.613 162.525 127.488 162.775 127.238C163.025 126.988 163.15 126.513 163.15 125.813V118.588C163.15 118.071 163.117 117.596 163.05 117.163C162.983 116.729 162.817 116.379 162.55 116.113C162.283 115.846 161.85 115.713 161.25 115.713C160.6 115.713 160.017 115.913 159.5 116.313C159 116.713 158.6 117.263 158.3 117.963C158.017 118.646 157.875 119.413 157.875 120.263V125.813C157.875 126.513 158 126.988 158.25 127.238C158.5 127.488 158.925 127.613 159.525 127.613V128.138C159.258 128.121 158.858 128.104 158.325 128.088C157.808 128.054 157.275 128.038 156.725 128.038C156.175 128.038 155.608 128.054 155.025 128.088C154.442 128.104 154.008 128.121 153.725 128.138V127.613C154.408 127.613 154.892 127.488 155.175 127.238C155.475 126.988 155.625 126.513 155.625 125.813V117.988C155.625 117.238 155.492 116.688 155.225 116.338C154.958 115.971 154.458 115.788 153.725 115.788V115.263C154.258 115.313 154.775 115.338 155.275 115.338C155.758 115.338 156.217 115.313 156.65 115.263C157.1 115.196 157.508 115.104 157.875 114.988V117.938C158.308 116.854 158.9 116.079 159.65 115.613C160.4 115.146 161.175 114.913 161.975 114.913ZM169.5 114.913C170.083 114.913 170.592 114.996 171.025 115.163C171.458 115.329 171.817 115.563 172.1 115.863C172.417 116.196 172.633 116.629 172.75 117.163C172.867 117.696 172.925 118.354 172.925 119.138V125.813C172.925 126.513 173.067 126.988 173.35 127.238C173.65 127.488 174.142 127.613 174.825 127.613V128.138C174.542 128.121 174.108 128.104 173.525 128.088C172.942 128.054 172.375 128.038 171.825 128.038C171.275 128.038 170.733 128.054 170.2 128.088C169.683 128.104 169.292 128.121 169.025 128.138V127.613C169.625 127.613 170.05 127.488 170.3 127.238C170.55 126.988 170.675 126.513 170.675 125.813V118.588C170.675 118.071 170.642 117.596 170.575 117.163C170.508 116.729 170.342 116.379 170.075 116.113C169.808 115.846 169.375 115.713 168.775 115.713C168.125 115.713 167.542 115.913 167.025 116.313C166.525 116.713 166.125 117.254 165.825 117.938C165.542 118.621 165.4 119.388 165.4 120.238L165.325 117.913C165.775 116.763 166.383 115.979 167.15 115.563C167.917 115.129 168.7 114.913 169.5 114.913ZM181.992 114.913C183.459 114.913 184.601 115.363 185.417 116.263C186.251 117.146 186.667 118.529 186.667 120.413H177.842L177.817 119.938H184.267C184.301 119.121 184.234 118.371 184.067 117.688C183.901 116.988 183.634 116.429 183.267 116.013C182.917 115.596 182.459 115.388 181.892 115.388C181.126 115.388 180.442 115.771 179.842 116.538C179.259 117.304 178.909 118.521 178.792 120.188L178.867 120.288C178.834 120.538 178.809 120.813 178.792 121.113C178.776 121.413 178.767 121.713 178.767 122.013C178.767 123.146 178.951 124.121 179.317 124.938C179.684 125.754 180.159 126.379 180.742 126.813C181.342 127.229 181.959 127.438 182.592 127.438C183.092 127.438 183.567 127.363 184.017 127.213C184.467 127.046 184.884 126.779 185.267 126.413C185.651 126.046 185.984 125.554 186.267 124.938L186.767 125.138C186.584 125.688 186.284 126.221 185.867 126.738C185.451 127.254 184.926 127.679 184.292 128.013C183.659 128.329 182.926 128.488 182.092 128.488C180.892 128.488 179.859 128.213 178.992 127.663C178.142 127.113 177.484 126.354 177.017 125.388C176.567 124.404 176.342 123.279 176.342 122.013C176.342 120.546 176.576 119.288 177.042 118.238C177.509 117.171 178.167 116.354 179.017 115.788C179.867 115.204 180.859 114.913 181.992 114.913ZM196.964 114.913C197.597 114.913 198.122 114.996 198.539 115.163C198.972 115.329 199.331 115.563 199.614 115.863C199.931 116.196 200.156 116.613 200.289 117.113C200.422 117.613 200.489 118.288 200.489 119.138V125.813C200.489 126.513 200.631 126.988 200.914 127.238C201.214 127.488 201.706 127.613 202.389 127.613V128.138C202.106 128.121 201.672 128.104 201.089 128.088C200.506 128.054 199.939 128.038 199.389 128.038C198.839 128.038 198.297 128.054 197.764 128.088C197.247 128.104 196.856 128.121 196.589 128.138V127.613C197.189 127.613 197.614 127.488 197.864 127.238C198.114 126.988 198.239 126.513 198.239 125.813V118.588C198.239 118.071 198.197 117.596 198.114 117.163C198.031 116.729 197.839 116.379 197.539 116.113C197.256 115.846 196.814 115.713 196.214 115.713C195.514 115.713 194.897 115.913 194.364 116.313C193.847 116.713 193.439 117.263 193.139 117.963C192.856 118.646 192.714 119.413 192.714 120.263V125.813C192.714 126.513 192.839 126.988 193.089 127.238C193.339 127.488 193.764 127.613 194.364 127.613V128.138C194.097 128.121 193.697 128.104 193.164 128.088C192.647 128.054 192.114 128.038 191.564 128.038C191.014 128.038 190.447 128.054 189.864 128.088C189.281 128.104 188.847 128.121 188.564 128.138V127.613C189.247 127.613 189.731 127.488 190.014 127.238C190.314 126.988 190.464 126.513 190.464 125.813V117.988C190.464 117.238 190.331 116.688 190.064 116.338C189.797 115.971 189.297 115.788 188.564 115.788V115.263C189.097 115.313 189.614 115.338 190.114 115.338C190.597 115.338 191.056 115.313 191.489 115.263C191.939 115.196 192.347 115.104 192.714 114.988V117.938C193.147 116.804 193.747 116.021 194.514 115.588C195.297 115.138 196.114 114.913 196.964 114.913ZM214.831 114.988V125.438C214.831 126.188 214.964 126.746 215.231 127.113C215.514 127.463 216.014 127.638 216.731 127.638V128.163C216.214 128.113 215.698 128.088 215.181 128.088C214.698 128.088 214.231 128.113 213.781 128.163C213.348 128.213 212.948 128.304 212.581 128.438V125.488C212.164 126.571 211.573 127.346 210.806 127.813C210.056 128.263 209.281 128.488 208.481 128.488C207.898 128.488 207.389 128.404 206.956 128.238C206.523 128.071 206.164 127.838 205.881 127.538C205.564 127.204 205.348 126.771 205.231 126.238C205.114 125.704 205.056 125.046 205.056 124.263V117.988C205.056 117.238 204.923 116.688 204.656 116.338C204.389 115.971 203.889 115.788 203.156 115.788V115.263C203.689 115.313 204.206 115.338 204.706 115.338C205.189 115.338 205.648 115.313 206.081 115.263C206.531 115.196 206.939 115.104 207.306 114.988V124.813C207.306 125.329 207.339 125.804 207.406 126.238C207.473 126.671 207.639 127.021 207.906 127.288C208.173 127.554 208.606 127.688 209.206 127.688C209.856 127.688 210.431 127.488 210.931 127.088C211.448 126.688 211.848 126.146 212.131 125.463C212.431 124.779 212.581 124.013 212.581 123.163V117.988C212.581 117.238 212.448 116.688 212.181 116.338C211.914 115.971 211.414 115.788 210.681 115.788V115.263C211.214 115.313 211.731 115.338 212.231 115.338C212.714 115.338 213.173 115.313 213.606 115.263C214.056 115.196 214.464 115.104 214.831 114.988ZM220.857 109.013C221.291 109.013 221.666 109.171 221.982 109.488C222.299 109.804 222.457 110.179 222.457 110.613C222.457 111.046 222.299 111.421 221.982 111.738C221.666 112.054 221.291 112.213 220.857 112.213C220.424 112.213 220.049 112.054 219.732 111.738C219.416 111.421 219.257 111.046 219.257 110.613C219.257 110.179 219.416 109.804 219.732 109.488C220.049 109.171 220.424 109.013 220.857 109.013ZM222.157 114.988V125.813C222.157 126.513 222.299 126.988 222.582 127.238C222.882 127.488 223.374 127.613 224.057 127.613V128.138C223.774 128.121 223.341 128.104 222.757 128.088C222.191 128.054 221.616 128.038 221.032 128.038C220.466 128.038 219.891 128.054 219.307 128.088C218.724 128.104 218.291 128.121 218.007 128.138V127.613C218.691 127.613 219.174 127.488 219.457 127.238C219.757 126.988 219.907 126.513 219.907 125.813V117.988C219.907 117.238 219.774 116.688 219.507 116.338C219.241 115.971 218.741 115.788 218.007 115.788V115.263C218.541 115.313 219.057 115.338 219.557 115.338C220.041 115.338 220.499 115.313 220.932 115.263C221.382 115.196 221.791 115.104 222.157 114.988ZM229.806 114.913C230.473 114.913 231.04 115.021 231.506 115.238C231.973 115.454 232.315 115.654 232.531 115.838C233.081 116.288 233.415 115.988 233.531 114.938H234.106C234.073 115.404 234.048 115.963 234.031 116.613C234.015 117.246 234.006 118.104 234.006 119.188H233.431C233.331 118.571 233.156 117.971 232.906 117.388C232.673 116.804 232.323 116.329 231.856 115.963C231.39 115.579 230.781 115.388 230.031 115.388C229.448 115.388 228.956 115.554 228.556 115.888C228.173 116.204 227.981 116.679 227.981 117.313C227.981 117.813 228.131 118.246 228.431 118.613C228.731 118.963 229.123 119.296 229.606 119.613C230.09 119.913 230.615 120.246 231.181 120.613C231.815 121.013 232.39 121.421 232.906 121.838C233.423 122.254 233.831 122.713 234.131 123.213C234.448 123.713 234.606 124.304 234.606 124.988C234.606 125.754 234.406 126.396 234.006 126.913C233.606 127.429 233.081 127.821 232.431 128.088C231.798 128.354 231.098 128.488 230.331 128.488C229.965 128.488 229.615 128.454 229.281 128.388C228.965 128.338 228.656 128.254 228.356 128.138C228.19 128.054 228.015 127.954 227.831 127.838C227.665 127.721 227.498 127.596 227.331 127.463C227.165 127.329 227.015 127.338 226.881 127.488C226.748 127.621 226.648 127.896 226.581 128.313H226.006C226.04 127.779 226.065 127.129 226.081 126.363C226.098 125.596 226.106 124.579 226.106 123.313H226.681C226.798 124.246 226.965 125.063 227.181 125.763C227.398 126.463 227.74 127.013 228.206 127.413C228.673 127.796 229.323 127.988 230.156 127.988C230.49 127.988 230.823 127.913 231.156 127.763C231.506 127.613 231.798 127.363 232.031 127.013C232.265 126.663 232.381 126.196 232.381 125.613C232.381 124.879 232.115 124.279 231.581 123.813C231.048 123.346 230.373 122.854 229.556 122.338C228.956 121.954 228.39 121.571 227.856 121.188C227.34 120.804 226.915 120.371 226.581 119.888C226.265 119.404 226.106 118.821 226.106 118.138C226.106 117.388 226.273 116.779 226.606 116.313C226.956 115.829 227.415 115.479 227.981 115.263C228.548 115.029 229.156 114.913 229.806 114.913ZM242.588 114.913C244.055 114.913 245.196 115.363 246.013 116.263C246.846 117.146 247.263 118.529 247.263 120.413H238.438L238.413 119.938H244.863C244.896 119.121 244.83 118.371 244.663 117.688C244.496 116.988 244.23 116.429 243.863 116.013C243.513 115.596 243.055 115.388 242.488 115.388C241.721 115.388 241.038 115.771 240.438 116.538C239.855 117.304 239.505 118.521 239.388 120.188L239.463 120.288C239.43 120.538 239.405 120.813 239.388 121.113C239.371 121.413 239.363 121.713 239.363 122.013C239.363 123.146 239.546 124.121 239.913 124.938C240.28 125.754 240.755 126.379 241.338 126.813C241.938 127.229 242.555 127.438 243.188 127.438C243.688 127.438 244.163 127.363 244.613 127.213C245.063 127.046 245.48 126.779 245.863 126.413C246.246 126.046 246.58 125.554 246.863 124.938L247.363 125.138C247.18 125.688 246.88 126.221 246.463 126.738C246.046 127.254 245.521 127.679 244.888 128.013C244.255 128.329 243.521 128.488 242.688 128.488C241.488 128.488 240.455 128.213 239.588 127.663C238.738 127.113 238.08 126.354 237.613 125.388C237.163 124.404 236.938 123.279 236.938 122.013C236.938 120.546 237.171 119.288 237.638 118.238C238.105 117.171 238.763 116.354 239.613 115.788C240.463 115.204 241.455 114.913 242.588 114.913ZM256.935 114.913C257.385 114.913 257.776 115.004 258.11 115.188C258.46 115.371 258.726 115.613 258.91 115.913C259.11 116.196 259.21 116.521 259.21 116.888C259.21 117.304 259.076 117.671 258.81 117.988C258.56 118.304 258.218 118.463 257.785 118.463C257.435 118.463 257.126 118.354 256.86 118.138C256.593 117.904 256.46 117.579 256.46 117.163C256.46 116.846 256.543 116.579 256.71 116.363C256.893 116.129 257.093 115.946 257.31 115.813C257.193 115.646 257.018 115.563 256.785 115.563C256.268 115.563 255.793 115.721 255.36 116.038C254.926 116.338 254.56 116.729 254.26 117.213C253.96 117.696 253.726 118.213 253.56 118.763C253.393 119.296 253.31 119.796 253.31 120.263V125.563C253.31 126.379 253.543 126.929 254.01 127.213C254.493 127.479 255.143 127.613 255.96 127.613V128.138C255.576 128.121 255.035 128.104 254.335 128.088C253.635 128.054 252.893 128.038 252.11 128.038C251.543 128.038 250.976 128.054 250.41 128.088C249.86 128.104 249.443 128.121 249.16 128.138V127.613C249.843 127.613 250.326 127.488 250.61 127.238C250.91 126.988 251.06 126.513 251.06 125.813V117.988C251.06 117.238 250.926 116.688 250.66 116.338C250.393 115.971 249.893 115.788 249.16 115.788V115.263C249.693 115.313 250.21 115.338 250.71 115.338C251.193 115.338 251.651 115.313 252.085 115.263C252.535 115.196 252.943 115.104 253.31 114.988V118.113C253.493 117.629 253.751 117.146 254.085 116.663C254.435 116.163 254.851 115.746 255.335 115.413C255.818 115.079 256.351 114.913 256.935 114.913ZM263.142 109.013C263.576 109.013 263.951 109.171 264.267 109.488C264.584 109.804 264.742 110.179 264.742 110.613C264.742 111.046 264.584 111.421 264.267 111.738C263.951 112.054 263.576 112.213 263.142 112.213C262.709 112.213 262.334 112.054 262.017 111.738C261.701 111.421 261.542 111.046 261.542 110.613C261.542 110.179 261.701 109.804 262.017 109.488C262.334 109.171 262.709 109.013 263.142 109.013ZM264.442 114.988V125.813C264.442 126.513 264.584 126.988 264.867 127.238C265.167 127.488 265.659 127.613 266.342 127.613V128.138C266.059 128.121 265.626 128.104 265.042 128.088C264.476 128.054 263.901 128.038 263.317 128.038C262.751 128.038 262.176 128.054 261.592 128.088C261.009 128.104 260.576 128.121 260.292 128.138V127.613C260.976 127.613 261.459 127.488 261.742 127.238C262.042 126.988 262.192 126.513 262.192 125.813V117.988C262.192 117.238 262.059 116.688 261.792 116.338C261.526 115.971 261.026 115.788 260.292 115.788V115.263C260.826 115.313 261.342 115.338 261.842 115.338C262.326 115.338 262.784 115.313 263.217 115.263C263.667 115.196 264.076 115.104 264.442 114.988ZM273.692 114.913C275.158 114.913 276.3 115.363 277.117 116.263C277.95 117.146 278.367 118.529 278.367 120.413H269.542L269.517 119.938H275.967C276 119.121 275.933 118.371 275.767 117.688C275.6 116.988 275.333 116.429 274.967 116.013C274.617 115.596 274.158 115.388 273.592 115.388C272.825 115.388 272.142 115.771 271.542 116.538C270.958 117.304 270.608 118.521 270.492 120.188L270.567 120.288C270.533 120.538 270.508 120.813 270.492 121.113C270.475 121.413 270.467 121.713 270.467 122.013C270.467 123.146 270.65 124.121 271.017 124.938C271.383 125.754 271.858 126.379 272.442 126.813C273.042 127.229 273.658 127.438 274.292 127.438C274.792 127.438 275.267 127.363 275.717 127.213C276.167 127.046 276.583 126.779 276.967 126.413C277.35 126.046 277.683 125.554 277.967 124.938L278.467 125.138C278.283 125.688 277.983 126.221 277.567 126.738C277.15 127.254 276.625 127.679 275.992 128.013C275.358 128.329 274.625 128.488 273.792 128.488C272.592 128.488 271.558 128.213 270.692 127.663C269.842 127.113 269.183 126.354 268.717 125.388C268.267 124.404 268.042 123.279 268.042 122.013C268.042 120.546 268.275 119.288 268.742 118.238C269.208 117.171 269.867 116.354 270.717 115.788C271.567 115.204 272.558 114.913 273.692 114.913Z" fill="#856457"/>
</svg>
